<?xml version="1.0" standalone="no"?>
<!DOCTYPE svg PUBLIC "-//W3C//DTD SVG 20010904//EN"
 "http://www.w3.org/TR/2001/REC-SVG-20010904/DTD/svg10.dtd">
<svg version="1.0" xmlns="http://www.w3.org/2000/svg"
 width="700.000000pt" height="700.000000pt" viewBox="0 0 700.000000 700.000000"
 preserveAspectRatio="xMidYMid meet">
<metadata>
Created by potrace 1.14, written by Peter Selinger 2001-2017
</metadata>
<g transform="translate(0.000000,700.000000) scale(0.100000,-0.100000)"
fill="#000000" stroke="none">
<path d="M3250 6994 c-482 -42 -888 -153 -1295 -354 -703 -347 -1248 -892
-1595 -1595 -177 -359 -282 -707 -337 -1120 -24 -184 -24 -666 0 -850 55 -412
161 -762 337 -1120 347 -703 893 -1249 1595 -1595 358 -176 702 -280 1120
-337 182 -24 665 -24 850 0 1113 149 2045 766 2610 1731 224 383 377 840 442
1322 24 182 24 666 0 848 -56 415 -161 763 -337 1121 -525 1063 -1527 1777
-2710 1931 -119 15 -573 27 -680 18z m640 -159 c656 -76 1268 -343 1785 -777
132 -111 366 -355 475 -496 282 -365 490 -789 605 -1237 30 -117 69 -336 86
-485 16 -136 16 -545 0 -680 -80 -698 -336 -1300 -772 -1820 -929 -1107 -2460
-1492 -3814 -958 -758 299 -1404 897 -1765 1633 -175 357 -279 709 -326 1105
-24 197 -24 563 0 760 89 754 410 1428 935 1964 393 400 839 678 1366 850 271
88 482 128 855 160 90 8 438 -4 570 -19z"/>
<path d="M3318 5629 c-147 -11 -337 -51 -495 -104 -723 -241 -1266 -856 -1417
-1605 -192 -951 288 -1917 1163 -2342 816 -397 1797 -231 2440 413 506 505
726 1232 585 1928 -190 940 -979 1638 -1934 1711 -149 11 -186 11 -342 -1z
m444 -154 c414 -55 802 -238 1093 -516 l80 -77 -179 -184 c-98 -100 -185 -193
-193 -205 -26 -39 -10 -71 42 -84 25 -6 45 -13 45 -14 0 -18 -165 -365 -173
-365 -2 0 3 30 11 68 31 146 -1 328 -80 459 -43 72 -143 172 -215 216 -135 82
-315 114 -463 83 -124 -26 -232 -86 -325 -180 -116 -117 -169 -228 -190 -396
-4 -30 -12 -60 -17 -67 -5 -6 -18 -51 -27 -98 -10 -47 -20 -87 -22 -89 -11
-10 -391 -187 -394 -184 -3 2 12 20 32 38 56 53 77 110 77 205 -1 184 -119
324 -243 287 -79 -24 -141 -131 -141 -243 0 -69 34 -169 73 -214 l34 -39 -30
-16 c-21 -11 -53 -55 -114 -160 -46 -80 -124 -205 -173 -278 -50 -73 -90 -140
-90 -147 0 -8 9 -15 20 -15 24 0 24 0 6 -87 -8 -37 -17 -98 -21 -135 -6 -52
-11 -69 -25 -73 -10 -3 -69 -40 -132 -81 -62 -41 -122 -77 -134 -80 -11 -3
-33 -15 -49 -28 -23 -19 -27 -27 -21 -50 4 -16 15 -30 26 -33 10 -3 31 -24 45
-46 15 -23 39 -52 53 -64 l27 -23 -87 0 c-76 0 -90 -3 -107 -21 l-20 -21 -50
103 c-207 431 -258 921 -142 1371 96 370 274 674 552 943 305 295 691 483
1106 540 135 18 398 18 535 0z m1278 -710 c241 -295 392 -650 440 -1035 5 -46
10 -150 10 -230 0 -231 -30 -421 -101 -634 -71 -213 -198 -446 -333 -611 l-46
-57 0 766 0 766 -164 0 c-163 0 -164 0 -180 -25 -14 -22 -16 -103 -16 -805 l0
-780 142 0 142 0 -49 -51 c-28 -28 -93 -86 -146 -129 -291 -234 -635 -375
-1023 -421 -140 -16 -432 -6 -571 20 -381 71 -740 252 -1000 503 l-80 77 148
1 147 0 0 128 0 129 -175 -1 -175 0 0 -101 -1 -100 -32 39 c-56 68 -145 190
-166 227 l-20 36 62 -9 c76 -12 315 -3 495 18 692 79 1302 345 1787 782 256
230 494 547 665 885 94 186 77 170 172 152 32 -6 38 -4 53 19 16 25 16 36 -14
248 -17 123 -34 233 -36 246 -3 12 -3 22 -1 22 3 0 32 -34 66 -75z m-1553
-120 c-55 -54 -92 -103 -153 -202 -7 -10 -15 -14 -20 -10 -12 11 50 130 93
178 45 50 110 99 131 99 8 0 -15 -29 -51 -65z m405 -96 c3 -55 3 -54 75 -84
23 -10 50 -26 59 -36 16 -18 16 -20 -2 -40 -20 -23 -42 -22 -146 2 -73 17
-108 4 -108 -39 0 -37 25 -59 126 -111 104 -53 139 -89 139 -141 0 -50 -31
-84 -96 -105 -48 -16 -49 -17 -49 -59 0 -49 -20 -82 -44 -73 -11 4 -16 18 -16
46 0 45 -26 78 -70 87 -75 17 -99 35 -87 68 8 20 42 20 97 1 97 -34 185 -7
163 51 -3 9 -47 36 -97 59 -50 24 -100 52 -111 62 -87 77 -68 184 40 228 69
28 75 33 75 60 0 36 18 75 34 75 11 0 16 -14 18 -51z m-594 -221 l-13 -23 -3
27 c-2 15 3 37 10 50 l13 23 3 -27 c2 -15 -3 -37 -10 -50z m1081 -285 c-22
-70 -61 -136 -109 -187 -43 -45 -110 -95 -110 -82 0 2 22 28 50 56 64 66 104
124 142 208 32 69 49 72 27 5z m-1054 -178 c91 -133 248 -238 405 -271 177
-38 399 17 527 129 18 16 35 28 38 26 8 -9 -161 -210 -271 -321 -217 -221
-459 -396 -739 -533 -93 -45 -189 -90 -211 -98 l-42 -16 11 30 c23 60 -18 76
-139 54 l-41 -7 4 53 c2 30 11 107 19 171 27 222 23 231 -105 226 -45 -2 -81
-2 -81 0 0 2 18 35 39 75 53 97 81 170 89 235 l7 53 225 124 c124 69 225 125
226 125 0 0 18 -25 39 -55z m1404 -471 c1 -45 -2 -117 -6 -160 l-7 -79 -7 50
c-10 68 -10 257 -2 325 l8 55 6 -55 c4 -30 7 -91 8 -136z m-4 -321 c-7 -27 -7
-28 -17 -6 -6 12 -7 34 -3 50 7 27 7 28 17 6 6 -12 7 -34 3 -50z m-2040 -7 c2
-12 11 -65 19 -120 9 -54 19 -103 22 -108 4 -6 8 -28 9 -50 2 -21 9 -46 15
-54 14 -16 66 -19 75 -4 3 6 25 10 48 9 41 -1 40 -2 -33 -25 -187 -61 -463
-117 -684 -140 -66 -6 -68 -6 -62 14 6 16 -3 32 -35 67 -23 25 -40 47 -38 49
2 1 54 20 114 40 155 53 188 74 243 159 26 40 60 97 76 127 l29 55 98 1 c93 1
100 -1 104 -20z m-638 -838 c-2 -24 -4 -7 -4 37 0 44 2 63 4 43 2 -21 2 -57 0
-80z"/>
<path d="M4430 3394 c-24 -30 -102 -111 -172 -181 l-128 -126 0 -484 0 -483
175 0 175 0 0 665 c0 366 -1 665 -2 665 -2 -1 -23 -26 -48 -56z m-240 -555 c0
-137 -3 -208 -10 -204 -6 4 -10 83 -10 204 0 174 3 211 17 211 2 0 3 -95 3
-211z m0 -275 c0 -27 -4 -43 -10 -39 -5 3 -10 24 -10 46 0 21 5 39 10 39 6 0
10 -21 10 -46z"/>
<path d="M3850 2879 c-47 -32 -122 -79 -167 -105 l-83 -46 0 -304 0 -304 175
0 175 0 0 410 c0 226 -3 410 -7 409 -5 0 -46 -27 -93 -60z m-190 -345 c0 -101
-3 -153 -10 -149 -6 4 -10 67 -10 156 0 93 4 149 10 149 6 0 10 -59 10 -156z
m0 -204 c0 -16 -4 -30 -10 -30 -5 0 -10 14 -10 30 0 17 5 30 10 30 6 0 10 -13
10 -30z"/>
<path d="M3355 2613 c-33 -14 -109 -43 -170 -64 l-110 -39 -3 -195 -2 -195
175 0 175 0 0 260 c0 143 -1 260 -2 260 -2 -1 -30 -13 -63 -27z m-225 -264 c0
-77 -4 -118 -10 -114 -6 4 -10 55 -10 121 0 69 4 114 10 114 6 0 10 -47 10
-121z"/>
<path d="M2810 2444 c-30 -7 -103 -21 -162 -30 l-108 -17 0 -138 0 -139 175 0
175 0 0 170 c0 130 -3 170 -12 169 -7 -1 -38 -7 -68 -15z m-220 -149 c0 -50
-4 -85 -10 -85 -6 0 -10 35 -10 85 0 50 4 85 10 85 6 0 10 -35 10 -85z"/>
<path d="M1169 3138 c-6 -23 -8 -64 -5 -89 l6 -47 -42 -7 c-30 -5 -43 -4 -46
5 -2 6 -18 28 -36 48 -44 50 -117 82 -188 82 -44 0 -58 4 -58 14 0 21 -14 27
-50 20 -27 -6 -31 -10 -26 -30 6 -21 2 -25 -39 -35 -40 -10 -55 -26 -40 -41 3
-3 50 6 103 19 85 22 103 23 148 14 129 -29 196 -145 148 -259 -33 -79 -92
-119 -217 -147 -80 -18 -90 -23 -79 -42 5 -8 19 -9 47 -3 38 9 48 5 58 -24 1
-5 18 -5 36 -1 28 6 32 11 28 31 -3 18 2 25 24 33 78 27 159 130 159 203 0 34
3 38 38 47 51 15 49 15 61 -22 13 -39 63 -102 77 -96 12 5 -74 369 -87 369 -4
0 -13 -19 -20 -42z"/>
<path d="M5816 3170 c-15 -44 -87 -362 -83 -367 10 -10 58 47 78 93 15 33 25
44 37 40 60 -16 62 -18 62 -44 0 -70 82 -180 158 -211 27 -11 32 -18 28 -36
-5 -18 -1 -24 17 -29 41 -11 57 -7 57 15 0 18 4 20 25 15 14 -3 36 -9 50 -12
20 -5 25 -2 25 13 0 16 -12 22 -57 33 -150 33 -197 59 -232 129 -40 79 -35
151 16 211 59 70 137 88 257 60 103 -24 116 -24 116 -5 0 8 -16 19 -40 25 -32
9 -40 15 -40 34 0 16 -7 26 -22 30 -36 9 -45 7 -51 -13 -3 -15 -17 -19 -73
-23 -93 -7 -157 -43 -204 -116 -13 -21 -20 -23 -53 -17 l-37 7 0 72 c0 47 -5
79 -14 92 -12 16 -15 16 -20 4z"/>
<path d="M768 3048 c-24 -6 -38 -16 -38 -26 0 -16 36 -172 61 -266 l10 -38 42
6 c115 18 184 92 175 187 -5 53 -26 89 -71 123 -31 23 -122 31 -179 14z"/>
<path d="M6080 3039 c-69 -41 -99 -108 -80 -178 20 -75 80 -122 171 -136 l45
-7 37 154 c20 85 37 156 37 160 0 10 -86 28 -132 28 -26 0 -57 -8 -78 -21z"/>
<path d="M671 3021 c-9 -6 -11 -18 -6 -40 4 -18 3 -31 -3 -31 -6 0 -13 14 -17
30 -5 24 -12 30 -32 30 -23 0 -24 -2 -18 -40 8 -50 -10 -54 -19 -4 -5 26 -11
34 -22 30 -9 -3 -20 -6 -25 -6 -6 0 -7 -15 -3 -35 4 -23 2 -35 -5 -35 -6 0
-11 8 -11 18 0 37 -15 45 -48 28 -143 -74 -105 -282 58 -310 49 -9 62 2 51 42
-6 20 -6 32 0 32 5 0 12 -13 16 -30 4 -24 11 -30 30 -30 22 0 24 4 22 34 -5
48 8 56 17 11 5 -26 10 -35 21 -31 8 3 19 6 25 6 7 0 8 14 5 35 -7 43 9 47 18
5 7 -30 36 -42 50 -19 9 14 -67 319 -80 319 -5 0 -16 -4 -24 -9z"/>
<path d="M6309 3028 c0 -2 -17 -73 -39 -158 -28 -113 -35 -157 -27 -162 19
-13 42 -4 45 17 2 11 9 25 14 30 7 7 8 -2 4 -26 -6 -32 -4 -37 16 -42 24 -7
38 6 38 35 0 9 5 20 11 24 8 5 9 -6 4 -35 -6 -39 -6 -41 19 -41 21 0 28 6 33
30 3 17 10 30 15 30 5 0 6 -16 2 -35 -7 -38 -1 -41 56 -36 109 10 173 137 120
240 -18 36 -73 81 -98 81 -6 0 -13 -13 -17 -30 -9 -42 -25 -38 -18 5 4 28 2
35 -11 35 -9 0 -19 0 -23 1 -4 0 -11 -14 -16 -30 -10 -39 -30 -42 -21 -3 11
45 10 47 -18 50 -22 3 -27 -1 -30 -24 -2 -15 -8 -29 -15 -31 -9 -3 -10 4 -3
28 7 24 6 35 -3 41 -11 7 -36 11 -38 6z"/>
</g>
</svg>
