<svg xmlns="http://www.w3.org/2000/svg" xml:space="preserve" x="0" y="0" version="1.1" viewBox="0 0 150 30"><path d="M4.2 20.3V9.1c-.1-.2-.3-.4-.5-.4-.3 0-.5.4-.5 1.1v.2l.1 1v.7c0 1.7-.4 2.6-1.3 2.6-.8 0-1.2-.7-1.2-2.1 0-.4 0-.9.1-1.6V7.7c0-.6-.1-1-.1-1.3 0-1 .3-1.6 1-1.6h.1l1.9.1c.9.1 1.8.2 2.6.2.7 0 1.2-.1 1.7-.1.5-.1 1-.1 1.5-.1.7 0 1 .6 1 1.7v5.3c0 1.6-.4 2.5-1.2 2.5-.9 0-1.3-.8-1.3-2.4v-1.3l.1-1c0-.7-.2-.9-.5-.9-.4 0-.5.5-.5 1.6v10.1c0 .4.1.7.3.7.1 0 .2 0 .3-.1s.2-.1.3-.1c.6 0 1 .6 1 1.9 0 .7-.1 1.2-.4 1.6-.2.4-.5.6-.9.6-.2 0-.6 0-1-.1-.5-.1-.8-.1-1-.1s-.6 0-1.1.1-.8.1-1.1.1c-.4 0-.7-.2-.9-.6s-.3-.9-.3-1.6c0-1.3.3-1.9 1-1.9.1 0 .2 0 .3.1.1 0 .2.1.3.1.1-.2.2-.4.2-.9z" fill="#67cc99" stroke="#000" stroke-linecap="round" stroke-linejoin="round" stroke-miterlimit="10" stroke-width=".5"/><path d="M18.6 14.2v7.6c0 .3.1.4.2.4h.4c.1 0 .3.1.4.4.1.2.2.6.2.9 0 .5-.1.8-.3 1.1s-.4.4-.6.4c0 0-.2 0-.6-.1h-.6c-.1 0-.3 0-.5.1s-.4.1-.5.1c-.4 0-.7-.5-.7-1.5 0-.8.2-1.2.5-1.3.1 0 .2-.1.2-.2v-2.6c0-.3-.1-.4-.3-.4H15c-.2 0-.3.1-.3.3V22c0 .1.1.1.2.2.3.1.5.5.5 1.2 0 1.1-.2 1.6-.7 1.6-.1 0-.3 0-.5-.1s-.4-.1-.5-.1h-.5c-.3.2-.5.2-.6.2-.3 0-.5-.1-.6-.4-.2-.3-.3-.7-.3-1.1s.1-.7.2-.9c.1-.2.2-.4.4-.4h.3c.1 0 .2-.1.2-.4v-7.6c0-.3-.1-.4-.2-.4h-.2c-.2 0-.3-.1-.4-.4-.1-.3-.2-.6-.2-.9 0-.5.1-.8.3-1.1.2-.3.4-.5.6-.5.1 0 .3 0 .6.1.3 0 .5.1.6.1s.3 0 .6-.1c.2 0 .4-.1.5-.1.4 0 .7.5.7 1.5 0 .7-.1 1.2-.4 1.3-.2.1-.3.2-.3.4v2.1c0 .1.1.1.3.1h1.3c.2 0 .3-.2.3-.5v-1.4c0-.4 0-.6-.1-.6 0 0-.1 0-.2-.1-.3-.1-.4-.5-.4-1.2 0-1.1.2-1.6.7-1.6.1 0 .3 0 .5.1.2 0 .4.1.5.1.2 0 .4 0 .7-.1.2 0 .4-.1.5-.1.3 0 .5.2.6.5.2.3.3.7.3 1.1 0 .4-.1.7-.2.9-.1.3-.2.4-.4.4h-.2c-.5 0-.6.1-.6.4zm4.9 0v7.6c0 .2.1.4.2.4h.3c.2 0 .3.1.4.4s.2.6.2.9c0 .5-.1.8-.3 1.1-.2.3-.4.5-.6.5-.1 0-.3 0-.6-.1-.3 0-.5-.1-.6-.1h-.6l-.4.1h-.2c-.2 0-.4-.2-.6-.5s-.3-.7-.3-1.1.1-.7.2-.9c.1-.3.2-.4.4-.4h.3c.1 0 .2-.1.2-.4v-7.6c0-.2-.1-.4-.2-.4H21c-.2 0-.3-.1-.4-.4s-.2-.6-.2-.9c0-.5.1-.8.3-1.1.2-.3.4-.5.6-.5.1 0 .3 0 .6.1.3 0 .5.1.6.1s.3 0 .6-.1c.3 0 .5-.1.6-.1.3 0 .5.2.6.5.2.3.3.7.3 1.1 0 .4-.1.7-.2.9s-.2.4-.4.4h-.2c-.2.1-.3.2-.3.5zm4.4-3.6c.6 0 1.1.3 1.6 1 .1-.5.3-.8.7-.8.5 0 .8.4.8 1.1V15c0 .7-.3 1.1-.8 1.1s-.8-.3-.9-1-.2-1.1-.3-1.3c-.1-.2-.4-.4-.7-.4-.2 0-.4.1-.6.3s-.2.5-.2.9.1.7.2.9c.2.2.5.4 1.1.6 1.7.7 2.6 2.1 2.6 4.4 0 1.3-.3 2.4-.8 3.3S29.5 25 28.7 25c-.7 0-1.3-.3-1.8-.9-.1.6-.3.8-.7.8-.5 0-.8-.4-.8-1.3v-3.4c0-.7.3-1.1 1-1.1.5 0 .8.4.9 1.2.1 1.3.4 1.9 1.1 1.9.3 0 .5-.1.7-.4s.3-.6.3-1-.1-.8-.3-1c-.2-.3-.6-.5-1.1-.7-1.1-.5-1.9-1.3-2.2-2.3-.2-.6-.3-1.3-.3-2 0-1.2.2-2.3.7-3.1.4-.6 1-1.1 1.7-1.1z" fill="#fff" stroke="#000" stroke-linecap="round" stroke-linejoin="round" stroke-miterlimit="10" stroke-width=".5"/><path d="m43.7 6.4 1.1 9.5L46 6.1c.1-.8.3-1.3.8-1.3.2 0 .5 0 .8.1.4.1.7.2.9.2.3 0 .7 0 1.2-.1s1-.1 1.2-.1c.4 0 .7.2.9.6.2.4.4 1 .4 1.6 0 .5-.1.9-.2 1.3-.2.4-.3.5-.6.5H51c-.2 0-.3.2-.3.5v10.9c0 .4.1.5.3.5h.4c.2 0 .4.2.6.5.2.4.2.8.2 1.3 0 .7-.1 1.2-.4 1.6-.2.4-.5.6-.9.6-.2 0-.4 0-.7-.1s-.6-.1-.7-.1c-.1 0-.4 0-.8.1-.2 0-.4.1-.7.1-.9 0-1.3-.7-1.3-2.1 0-.5.1-1 .2-1.3s.3-.5.6-.5h.3c.1-.1.2-.2.2-.4V8.7l-2.2 15.1c-.1.5-.2.9-.3 1-.1.2-.4.2-.7.2s-.6-.1-.7-.3c-.1-.2-.2-.6-.3-1.1L41.7 9.1v10.7c0 .5 0 .8.1 1 0 .1.2.2.4.2.6.1.8.7.8 1.9 0 .6-.1 1.1-.3 1.5s-.5.6-.8.6c-.2 0-.5 0-.8-.1-.4-.1-.6-.1-.8-.1s-.5 0-.8.1-.6.1-.7.1c-.3 0-.6-.2-.9-.7-.2-.4-.4-1-.4-1.6 0-.5.1-1 .2-1.3.2-.4.3-.5.6-.5h.3c.2 0 .3-.2.3-.5v-11c0-.4-.1-.5-.3-.5h-.4c-.2 0-.4-.2-.6-.5-.2-.4-.2-.8-.2-1.3 0-.7.1-1.2.4-1.6.2-.4.6-.6 1-.6.3 0 .7 0 1.2.1.6-.1 1 0 1.2 0 .2 0 .5 0 .8-.1.4-.1.6-.1.8-.1.5.1.8.6.9 1.6z" fill="#67cc99" stroke="#000" stroke-linecap="round" stroke-linejoin="round" stroke-miterlimit="10" stroke-width=".5"/><path d="M56.3 14.2v7.6c0 .2.1.4.2.4h.3c.2 0 .3.1.4.4s.2.6.2.9c0 .5-.1.8-.3 1.1-.2.3-.4.5-.6.5-.1 0-.3 0-.6-.1-.3 0-.5-.1-.6-.1h-.6l-.4.1h-.2c-.2 0-.4-.2-.6-.5-.2-.3-.3-.7-.3-1.1s.1-.7.2-.9c.1-.3.2-.4.4-.4h.3c.1 0 .2-.1.2-.4v-7.6c0-.2-.1-.4-.2-.4h-.3c-.2 0-.3-.1-.4-.4s-.3-.5-.3-.8c0-.5.1-.8.3-1.1s.4-.5.6-.5c.1 0 .3 0 .6.1.3 0 .5.1.6.1s.3 0 .6-.1c.3 0 .5-.1.6-.1.3 0 .5.2.6.5.2.3.3.7.3 1.1 0 .4-.1.7-.2.9s-.2.4-.4.4h-.2c-.2 0-.2.1-.2.4zm2.7 7.6v-7.6c0-.3-.1-.4-.2-.4h-.2c-.2 0-.3-.1-.4-.4-.1-.3-.2-.6-.2-.9 0-.5.1-.8.3-1.1s.4-.5.6-.5c.2 0 .5 0 .8.1.3 0 .5.1.8.1.4 0 .7 0 1-.1.4-.1.7-.1.8-.1.9 0 1.6.6 2.2 1.9s.8 2.9.8 5c0 2.2-.3 4-.9 5.3S63 25 62 25c-.2 0-.5 0-.8-.1s-.6-.1-.8-.1-.5 0-.8.1c-.3 0-.5.1-.7.1-.3 0-.5-.1-.7-.4s-.3-.7-.3-1.1.1-.7.2-.9c.1-.2.2-.4.4-.4h.3c.2-.1.2-.3.2-.4zm2.6-8.4c-.3 0-.4.2-.5.5v7.5c0 .7.2 1 .5 1 .5 0 .8-.4 1.1-1.2.3-.8.4-1.9.4-3.3s-.1-2.4-.4-3.2-.6-1.3-1.1-1.3zm5.5 8.4v-7.7c0-.3-.1-.4-.2-.4 0 0-.1 0-.1.1-.1 0-.1.1-.1.1-.2 0-.3-.1-.4-.4-.1-.3-.2-.6-.2-.9 0-.5.1-.9.3-1.2.2-.3.4-.4.7-.4.1 0 .4 0 .7.1.3 0 .5.1.7.1h1.2c.7 0 1 .5 1 1.5 0 .9-.2 1.3-.7 1.3 0 0-.1 0-.2-.1-.1 0-.2-.1-.2-.1-.1 0-.2.2-.2.6v6.7c0 .9.3 1.3.9 1.3s.9-.3.9-.9c0-.2 0-.4-.1-.8 0-.3-.1-.6-.1-.8 0-.5.1-.9.3-1.2.2-.3.4-.5.7-.5.7 0 1 .6 1 1.9v3.7c0 .5 0 .8-.1 1s-.3.2-.5.2c-.3 0-.7 0-1.2-.1s-1-.1-1.2-.1c-.3 0-.8 0-1.4.1s-1.1.1-1.4.1-.5-.1-.7-.4-.3-.7-.3-1.1.1-.7.2-.9c.1-.2.2-.4.4-.4h.3v-.4zm9.6-7.6v7.6c0 .2.1.4.2.4h.3c.2 0 .3.1.4.4s.2.6.2.9c0 .5-.1.8-.3 1.1-.2.3-.4.5-.6.5-.1 0-.3 0-.6-.1s-.5-.1-.6-.1h-.6l-.4.1h-.2c-.2 0-.4-.2-.6-.5s-.3-.7-.3-1.1.1-.7.2-.9c.1-.3.2-.4.4-.4h.3c.1 0 .2-.1.2-.4v-7.6c0-.2-.1-.4-.2-.4h-.3c-.2 0-.3-.1-.4-.4-.1-.3-.2-.6-.2-.9 0-.5.1-.8.3-1.1.2-.3.4-.5.6-.5.1 0 .3 0 .6.1.3 0 .5.1.6.1s.3 0 .6-.1c.3 0 .5-.1.6-.1.3 0 .5.2.6.5.2.3.3.7.3 1.1 0 .4-.1.7-.2.9-.1.3-.2.4-.4.4H77c-.2.1-.3.2-.3.5zm5 4.6h0-.2v2.7c0 .4.1.6.2.6h.6c.4 0 .7.4.7 1.3 0 .4-.1.8-.2 1.1s-.4.4-.6.4c-.1 0-.3 0-.6-.1s-.5-.1-.6-.1h-.8c-.4.1-.6.1-.7.1-.3 0-.5-.2-.6-.5-.2-.3-.3-.7-.3-1.1s.1-.7.2-.9c.1-.3.2-.4.4-.4h.3c.1 0 .2-.1.2-.4V14c0-.3-.1-.4-.2-.4h-.2c-.2 0-.3-.1-.4-.4-.1-.3-.2-.6-.2-.9 0-.5.1-.9.3-1.2s.4-.4.7-.4c.3 0 .6 0 1.1.1.5 0 .9.1 1.1.1h1.4c.4 0 .7 0 1-.1h.6c.5 0 .8.3.8.9v4.1c0 .9-.3 1.3-.8 1.3s-.8-.4-.8-1.2c0-.2 0-.5.1-.9s.1-.7.1-.9c0-.5-.2-.8-.6-.8h-1.6c-.2 0-.4.1-.4.2s-.1.4-.1.8v2.1h.2c.3 0 .4-.2.4-.5v-.8c0-.3.1-.5.2-.6.1-.2.3-.3.4-.3.4 0 .6.4.6 1.1v4.4c0 .7-.2 1.1-.7 1.1-.4 0-.6-.3-.6-.8v-.8c.1-.2-.1-.4-.4-.4zm7.5-4.4v2.1c.1 0 .2.1.3.1.3 0 .4-.2.4-.5v-.8c0-.2.1-.4.2-.6.1-.2.3-.3.4-.3.4 0 .6.3.6 1 0 .3 0 .7-.1 1.2v.9c0 .5 0 1 .1 1.5v1c0 .7-.2 1-.7 1-.4 0-.6-.3-.6-.8v-.9c0-.3-.1-.5-.4-.5h-.2v2.5c0 .4.1.7.2.8.1.1.2.1.3.1h1.2c.3 0 .4-.1.5-.2s.1-.3.1-.7c0-.2 0-.5-.1-.8 0-.5-.1-.8-.1-1 0-.4.1-.7.2-.9.2-.2.4-.4.6-.4.6 0 .8.6.8 1.7V24c0 .4-.1.6-.2.8-.1.1-.3.2-.6.2h-2.9c-.3 0-.6 0-1.1.1-.5 0-.9.1-1.1.1-.3 0-.5-.1-.7-.4s-.3-.7-.3-1.1.1-.7.2-.9c.1-.2.2-.4.4-.4h.3c.1 0 .2-.1.2-.4v-7.9c0-.3-.1-.4-.2-.4h-.4c-.1 0-.3-.1-.4-.4s0-.4 0-.8c0-.5.1-.9.3-1.2.2-.3.4-.5.7-.5.2 0 .6 0 1.1.1.4 0 .9.1 1.3.1.3 0 .8 0 1.4-.1.6 0 1.1-.1 1.4-.1.5 0 .8.3.8.9v4.1c0 .9-.3 1.3-.9 1.3-.5 0-.8-.4-.8-1.1v-1.8c0-.3 0-.6-.1-.7-.1-.1-.2-.1-.4-.1h-1c-.3 0-.5.1-.6.2s-.1.5-.1.8z" fill="#fff" stroke="#000" stroke-linecap="round" stroke-linejoin="round" stroke-miterlimit="10" stroke-width=".5"/><path d="M109.6 9.4v10.9c0 .4.1.6.3.6h.4c.2 0 .4.2.6.5.2.4.2.8.2 1.3 0 .7-.1 1.2-.4 1.6s-.5.7-.9.7c0 0-.3 0-.9-.1-.3 0-.6-.1-.9-.1-.2 0-.4 0-.8.1-.3.1-.6.1-.8.1-.6 0-1-.7-1-2.1 0-1.1.2-1.8.7-1.9.2-.1.3-.2.3-.3 0-.1.1-.4.1-.8v-2.8c0-.4-.1-.6-.4-.6h-2c-.3 0-.4.2-.4.5v3.8c0 .1.1.2.3.2.5.1.7.7.7 1.7 0 1.5-.4 2.3-1.1 2.3-.2 0-.4 0-.8-.1-.3-.1-.6-.1-.8-.1-.3 0-.5 0-.7.1-.5.1-.7.1-.9.1-.4 0-.7-.2-.9-.6-.2-.4-.4-1-.4-1.6 0-.5.1-1 .2-1.3.2-.4.3-.5.6-.5h.4c.2 0 .3-.2.3-.5V9.4c0-.4-.1-.5-.3-.5h-.4c-.2 0-.4-.2-.6-.5s.1-.8.1-1.4c0-.7.1-1.2.4-1.6.2-.4.5-.6.9-.6.2 0 .5 0 .9.1s.7.1.9.1c.2 0 .4 0 .8-.1.3-.1.6-.1.8-.1.6 0 1 .7 1 2.1 0 1.1-.2 1.7-.6 1.9-.2.1-.4.3-.4.5v2.5c0 .2 0 .4.1.5s.2.2.4.2h1.8c.3 0 .4-.2.4-.7v-2c0-.5 0-.8-.1-.9 0 0-.1 0-.3-.1-.4-.1-.6-.7-.6-1.7 0-1.5.3-2.3 1-2.3.2 0 .4 0 .8.1.3.1.6.1.8.1.3 0 .6 0 .9-.1.3-.1.5-.1.7-.1.4 0 .7.2.9.6.2.4.4 1 .4 1.6 0 .5-.1 1-.2 1.3s-.3.5-.6.5h-.4c-.4.1-.5.4-.5.6z" fill="#67cc99" stroke="#000" stroke-linecap="round" stroke-linejoin="round" stroke-miterlimit="10" stroke-width=".5"/><path d="M118.8 14.1v6.5c0 1.5-.3 2.7-.8 3.5s-1.3 1.2-2.3 1.2c-.9 0-1.7-.4-2.2-1.2-.5-.8-.8-1.9-.8-3.4v-6.5c0-.3 0-.5-.1-.5h-.2c-.3 0-.5-.4-.5-1.3 0-.5.1-.8.2-1.1.2-.3.3-.5.6-.5.1 0 .3 0 .5.1.2 0 .4.1.6.1s.4 0 .5-.1c.2-.1.4-.1.5-.1.5 0 .7.5.7 1.6 0 .7-.1 1.1-.3 1.2l-.3.1c-.1 0-.1.3-.1.6V20c0 .9.1 1.5.2 1.8s.4.5.7.5c.4 0 .6-.2.8-.5s.2-1 .2-1.9v-5.7c0-.3 0-.5-.1-.5l-.3-.1c-.2-.1-.3-.5-.3-1.1 0-1.1.2-1.7.7-1.7.1 0 .3 0 .6.1.2 0 .4.1.6.1s.4 0 .7-.1h.3c.2 0 .4.1.5.4.1.3.2.6.2 1.1 0 .8-.1 1.2-.4 1.3l-.3.1-.1.3zm4.2-3.5c.6 0 1.1.3 1.6 1 .1-.5.3-.8.7-.8.5 0 .8.4.8 1.1V15c0 .7-.3 1.1-.8 1.1s-.8-.3-.9-1-.2-1.1-.3-1.3c-.1-.2-.4-.4-.7-.4-.2 0-.4.1-.6.3s-.2.5-.2.9.1.7.2.9c.2.2.5.4 1.1.6 1.7.7 2.6 2.1 2.6 4.4 0 1.3-.3 2.4-.8 3.3s-1.1 1.3-1.9 1.3c-.7 0-1.3-.3-1.8-.9-.1.6-.3.8-.7.8-.5 0-.8-.4-.8-1.3v-3.4c0-.7.3-1.1 1-1.1.5 0 .8.4.9 1.2.1 1.3.4 1.9 1.1 1.9.3 0 .5-.1.7-.4s.3-.6.3-1-.1-.8-.3-1c-.2-.3-.6-.5-1.1-.7-1.1-.5-1.9-1.3-2.2-2.3-.2-.6-.3-1.3-.3-2 0-1.2.2-2.3.7-3.1.4-.7 1-1.2 1.7-1.2zm6.7 11.2V14c-.1-.3-.2-.4-.3-.4-.2 0-.4.3-.4.8v.2l.1.7v.5c0 1.2-.3 1.8-.9 1.8-.6 0-.8-.5-.8-1.5v-4c0-.7.2-1.1.7-1.1h.1l1.3.1c.7 0 1.3.1 1.8.1s.9 0 1.2-.1c.4-.1.7-.1 1.1-.1.5 0 .7.4.7 1.2V16c0 1.1-.3 1.7-.8 1.7-.6 0-.9-.6-.9-1.7v-.9l.1-.7c0-.4-.1-.6-.4-.6-.2 0-.4.4-.4 1.1V22c0 .3.1.5.2.5 0 0 .1 0 .2-.1.1 0 .2-.1.2-.1.4 0 .7.4.7 1.3 0 .5-.1.8-.2 1.1s-.4.4-.7.4c-.2 0-.4 0-.7-.1-.3 0-.6-.1-.7-.1-.2 0-.4 0-.7.1-.3 0-.6.1-.7.1-.3 0-.5-.1-.6-.4-.2-.3-.2-.7-.2-1.1 0-.9.2-1.4.7-1.4 0 0 .1 0 .2.1.1 0 .2.1.2.1-.2-.3-.1-.4-.1-.6zm6.2 0v-7.7c0-.3-.1-.4-.2-.4 0 0-.1 0-.1.1-.1 0-.1.1-.1.1-.2 0-.3-.1-.4-.4-.1-.3-.2-.6-.2-.9 0-.5.1-.9.3-1.2s.4-.4.7-.4c.1 0 .4 0 .7.1.3 0 .5.1.7.1h1.2c.7 0 1 .5 1 1.5 0 .9-.2 1.3-.7 1.3 0 0-.1 0-.2-.1-.1 0-.2-.1-.2-.1-.1 0-.2.2-.2.6v6.7c0 .9.3 1.3.9 1.3.6 0 .9-.3.9-.9 0-.2 0-.4-.1-.8s-.1-.6-.1-.8c0-.5.1-.9.3-1.2.2-.3.4-.5.7-.5.7 0 1 .6 1 1.9v3.7c0 .5 0 .8-.1 1s-.3.3-.5.3c-.3 0-.7 0-1.2-.1-.5 0-1-.1-1.2-.1-.3 0-.8 0-1.4.1s-1.1 0-1.4 0c-.3 0-.5-.1-.7-.4s-.3-.7-.3-1.1.1-.7.2-.9c.1-.2.2-.4.4-.4h.3c-.1-.1 0-.3 0-.4zm9.6-7.4v2.1c.1 0 .2.1.3.1.3 0 .4-.2.4-.5v-.8c0-.2.1-.4.2-.6.1-.2.3-.3.4-.3.4 0 .6.3.6 1 0 .3 0 .7-.1 1.2v.9c0 .5 0 1 .1 1.5v1c0 .7-.2 1-.7 1-.4 0-.6-.3-.6-.8v-.9c0-.3-.1-.5-.4-.5h-.2v2.5c0 .4.1.7.2.8.1.1.2.1.3.1h1.2c.3 0 .4-.1.5-.2s.1-.3.1-.7c0-.2 0-.5-.1-.8 0-.5-.1-.8-.1-1 0-.4.1-.7.2-.9.2-.2.4-.4.6-.4.6 0 .8.6.8 1.7V24c0 .4-.1.6-.2.8-.1.1-.3.2-.6.2h-.4c-.9-.1-1.8-.1-2.5-.1-.3 0-.6 0-1.1.1-.5 0-.9.1-1.1.1-.3 0-.5-.1-.7-.4s-.3-.7-.3-1.1.1-.7.2-.9c.1-.2.2-.4.4-.4h.3c.1 0 .2-.1.2-.4V14c0-.3-.1-.4-.2-.4h-.4c-.1 0-.3-.1-.4-.4s-.2-.6-.2-.9c0-.5.1-.9.3-1.2s.4-.5.7-.5c.2 0 .6 0 1.1.1.4 0 .9.1 1.3.1.3 0 .8 0 1.4-.1.6 0 1.1-.1 1.4-.1.5 0 .8.3.8.9v4.1c0 .9-.3 1.3-.9 1.3-.5 0-.8-.4-.8-1.1V14c0-.3 0-.6-.1-.7-.1-.1-.2-.1-.4-.1h-1c-.3 0-.5.1-.6.2s.1.7.1 1z" fill="#fff" stroke="#000" stroke-linecap="round" stroke-linejoin="round" stroke-miterlimit="10" stroke-width=".5"/></svg>