<svg xmlns="http://www.w3.org/2000/svg" xml:space="preserve" x="0" y="0" version="1.1" viewBox="0 0 2002 1400"><path d="m849 1108 192-230V745C944 671 897 571 897 440v-3c-2-124 51-243 144-325V0H590v859c0 130-73 130-97 130-56 0-101-28-161-101l-34-40-38 36L32 1100 0 1130l25 35C140 1321 304 1400 515 1400c158 0 292-50 386-144 8-8 15-16 23-24-24-17-48-36-70-55-20-19-22-49-5-69"/><path d="M1526 532c-178-40-221-66-221-124v-3c0-46 42-82 128-83 114 0 241 44 358 126l178-250C1830 86 1660 27 1442 27c-178 0-317 58-401 153-63 71-96 162-95 257v3c0 107 35 183 95 240 87 83 227 125 388 162 174 41 216 69 216 123v4c0 55-51 88-147 88-148 0-289-53-415-154l-48 57-150 179c22 19 44 37 68 54 148 105 337 158 532 158 311 0 518-155 518-417V930c-1-239-183-335-477-398"/><text transform="translate( 15000 15000)"><tspan x="0" y="0" font-family="MyriadPro-Regular" font-size="120">      &lt;li&gt;&lt;a href="{{ site.patreon }}" target="_blank"&gt;</tspan><tspan x="0" y="144" font-family="MyriadPro-Regular" font-size="120">        &lt;img src="{% link {{ site.images_path }}/{{ site.patreon-icon }} %}" alt="Patreon" height="100" width="100"&gt;&amp;nbsp; -&amp;nbsp; Support us on Patreon to get access to our research and progress notes.&lt;/a&gt;</tspan><tspan x="0" y="288" font-family="MyriadPro-Regular" font-size="120">      &lt;/li&gt;</tspan></text></svg>
